<?xml version="1.0" standalone="no"?>
<!DOCTYPE svg PUBLIC "-//W3C//DTD SVG 20010904//EN"
 "http://www.w3.org/TR/2001/REC-SVG-20010904/DTD/svg10.dtd">
<svg version="1.0" xmlns="http://www.w3.org/2000/svg"
 width="368.000000pt" height="368.000000pt" viewBox="0 0 368.000000 368.000000"
 preserveAspectRatio="xMidYMid meet">
<metadata>
Created by potrace 1.14, written by Peter Selinger 2001-2017
</metadata>
<g transform="translate(0.000000,368.000000) scale(0.100000,-0.100000)"
fill="#000000" stroke="none">
<path d="M0 2755 c0 -509 2 -925 4 -925 2 0 11 31 21 69 9 38 26 77 36 87 34
30 48 1 70 -142 12 -71 24 -133 29 -137 8 -9 17 37 44 236 20 143 38 175 70
125 15 -25 29 -112 47 -306 7 -67 14 -121 16 -118 3 2 11 69 18 148 37 379 47
434 79 422 20 -8 24 -22 36 -122 11 -92 40 -467 40 -516 0 -16 3 -27 6 -24 3
3 14 140 25 304 23 356 33 449 50 470 10 13 14 13 26 1 18 -18 29 -129 52
-520 10 -175 22 -321 25 -324 3 -4 6 10 6 30 0 133 44 794 57 860 6 31 28 46
44 30 16 -16 27 -157 44 -533 8 -195 18 -380 22 -410 7 -53 7 -52 14 45 4 55
15 242 23 415 19 364 31 499 45 513 19 19 39 -13 45 -76 8 -73 46 -772 46
-836 0 -24 3 -42 6 -39 3 4 14 161 25 350 21 380 33 507 49 537 11 21 35 19
44 -4 11 -29 27 -229 41 -509 8 -159 16 -290 18 -292 2 -2 9 83 16 189 23 369
36 487 56 514 19 25 41 3 49 -48 7 -46 46 -555 46 -608 0 -21 4 -31 9 -25 5 5
16 103 26 217 9 114 20 233 25 264 11 65 31 93 53 74 17 -14 23 -41 37 -176
22 -214 33 -295 40 -295 4 0 15 44 25 98 41 229 57 272 95 252 24 -13 35 -48
64 -209 14 -73 27 -135 30 -138 5 -5 13 62 21 177 8 102 20 153 41 171 27 23
52 -17 69 -110 8 -46 17 -86 19 -88 5 -5 16 35 35 129 14 67 34 89 58 66 20
-20 30 -76 39 -211 4 -59 10 -110 14 -112 4 -3 15 57 25 133 37 290 53 348 90
311 20 -20 30 -83 51 -341 10 -120 21 -218 26 -218 4 0 8 15 8 33 0 52 39 561
46 606 7 45 28 71 45 54 20 -20 29 -89 51 -400 12 -172 23 -311 25 -309 2 1
10 135 18 297 16 299 30 473 41 502 9 25 33 28 45 5 15 -27 34 -252 49 -573
12 -247 27 -382 29 -270 2 95 41 780 47 837 7 58 26 90 44 72 15 -15 28 -175
50 -609 12 -220 22 -404 24 -410 7 -22 16 116 31 455 17 375 28 517 44 533 16
16 38 1 44 -31 11 -57 52 -662 58 -859 l1 -38 8 45 c5 25 16 178 25 340 9 162
20 331 25 375 17 137 55 135 71 -2 5 -43 18 -212 28 -377 11 -164 21 -300 24
-302 2 -2 13 126 25 284 23 298 32 360 53 373 33 20 43 -23 69 -281 32 -326
30 -323 56 -91 15 134 29 212 39 227 33 51 50 21 71 -123 40 -288 42 -290 73
-93 22 137 37 166 70 136 10 -10 27 -49 36 -87 10 -38 19 -69 21 -69 2 0 4
416 4 925 l0 925 -1840 0 -1840 0 0 -925z"/>
<path d="M776 2178 c-3 -40 -13 -199 -21 -353 -17 -311 -31 -482 -41 -508 -8
-22 -31 -22 -42 1 -5 9 -12 49 -16 87 -8 84 -46 708 -46 749 0 16 -2 27 -5 25
-2 -3 -14 -149 -25 -324 -23 -348 -33 -434 -52 -446 -36 -23 -48 44 -73 411
-9 129 -20 246 -24 259 -4 14 -16 -71 -29 -215 -30 -315 -41 -359 -78 -322
-16 16 -31 109 -54 331 -7 65 -14 116 -17 114 -2 -3 -13 -66 -23 -141 -20
-138 -39 -196 -65 -196 -31 0 -51 56 -76 210 l-12 75 -19 -65 c-10 -36 -27
-83 -38 -105 -20 -39 -20 -60 -20 -902 l0 -863 1840 0 1840 0 0 864 c0 837 -1
866 -19 898 -11 18 -27 64 -37 101 -9 37 -18 66 -20 64 -2 -1 -10 -48 -19
-102 -19 -116 -41 -170 -70 -170 -30 0 -43 40 -66 196 -17 128 -29 181 -29
137 0 -28 -31 -312 -40 -372 -10 -64 -32 -98 -51 -79 -18 18 -27 76 -50 322
-13 135 -26 226 -30 215 -4 -10 -15 -122 -24 -249 -20 -298 -33 -397 -50 -415
-38 -37 -48 22 -75 439 -11 173 -23 317 -25 320 -3 2 -5 -4 -5 -15 0 -40 -40
-682 -46 -744 -4 -36 -10 -75 -15 -87 -10 -27 -34 -30 -43 -6 -11 27 -25 201
-41 503 -16 292 -26 433 -31 428 -1 -2 -10 -160 -18 -353 -26 -560 -36 -655
-66 -655 -32 0 -43 96 -70 599 -11 206 -22 377 -25 379 -3 3 -5 -15 -5 -39 0
-70 -29 -610 -40 -752 -12 -140 -16 -157 -36 -157 -31 0 -35 27 -64 550 -11
190 -20 361 -20 380 0 20 -4 30 -9 25 -5 -6 -18 -194 -30 -420 -12 -225 -24
-420 -27 -432 -7 -27 -40 -31 -48 -5 -8 24 -22 197 -42 497 -9 143 -20 263
-23 268 -4 4 -15 -113 -25 -260 -10 -147 -22 -294 -27 -328 -19 -116 -61 -111
-78 10 -5 39 -17 162 -27 275 -9 113 -20 211 -23 218 -4 7 -17 -66 -29 -162
-26 -197 -39 -254 -65 -270 -37 -23 -47 14 -63 232 -4 50 -10 92 -15 92 -5 0
-9 -10 -9 -23 0 -41 -30 -126 -48 -136 -40 -21 -62 18 -77 138 -11 80 -21 46
-34 -111 -13 -155 -24 -198 -52 -198 -29 0 -46 46 -74 201 -14 79 -30 148 -34
152 -5 5 -18 -47 -30 -115 -31 -175 -50 -232 -79 -236 -40 -6 -59 74 -78 336
-4 50 -10 92 -14 92 -4 0 -10 -37 -14 -82 -36 -455 -52 -536 -94 -485 -18 21
-29 118 -48 400 -10 147 -21 264 -25 260 -3 -5 -18 -174 -32 -378 -14 -203
-29 -378 -32 -387 -10 -26 -42 -22 -48 5 -7 25 -20 243 -38 602 -6 132 -15
247 -20 255 -6 11 -8 6 -9 -16 0 -17 -9 -190 -20 -385 -29 -532 -32 -559 -64
-559 -21 0 -25 20 -36 154 -11 132 -40 683 -40 755 0 24 -2 42 -5 39 -3 -2
-14 -173 -25 -379 -27 -506 -38 -599 -70 -599 -30 0 -40 95 -66 655 -8 193
-17 351 -19 353 -1 2 -5 -30 -9 -70z"/>
</g>
</svg>
